<mxfile host="app.diagrams.net" modified="2024-03-05T11:54:29.764Z" agent="Mozilla/5.0 (Windows NT 10.0; Win64; x64) AppleWebKit/537.36 (KHTML, like Gecko) Chrome/122.0.0.0 Safari/537.36" etag="Vd3VR4HLINLJZ9mvQKOI" version="23.1.6" type="device">
  <diagram name="Page-1" id="U_u33wem1ti8gBGxECys">
    <mxGraphModel dx="1114" dy="566" grid="1" gridSize="10" guides="1" tooltips="1" connect="1" arrows="1" fold="1" page="1" pageScale="1" pageWidth="850" pageHeight="1100" math="0" shadow="0">
      <root>
        <mxCell id="0" />
        <mxCell id="1" parent="0" />
        <mxCell id="0Rm-izsB5Mol1mDSeOwW-1" value="Audio Content&#xa;" style="swimlane;fontStyle=2;align=center;verticalAlign=top;childLayout=stackLayout;horizontal=1;startSize=26;horizontalStack=0;resizeParent=1;resizeLast=0;collapsible=1;marginBottom=0;rounded=0;shadow=0;strokeWidth=1;" parent="1" vertex="1">
          <mxGeometry x="220" y="120" width="160" height="110" as="geometry">
            <mxRectangle x="230" y="140" width="160" height="26" as="alternateBounds" />
          </mxGeometry>
        </mxCell>
        <mxCell id="0Rm-izsB5Mol1mDSeOwW-2" value="String Name&#xa;" style="text;align=left;verticalAlign=top;spacingLeft=4;spacingRight=4;overflow=hidden;rotatable=0;points=[[0,0.5],[1,0.5]];portConstraint=eastwest;" parent="0Rm-izsB5Mol1mDSeOwW-1" vertex="1">
          <mxGeometry y="26" width="160" height="26" as="geometry" />
        </mxCell>
        <mxCell id="0Rm-izsB5Mol1mDSeOwW-3" value="String Author" style="text;align=left;verticalAlign=top;spacingLeft=4;spacingRight=4;overflow=hidden;rotatable=0;points=[[0,0.5],[1,0.5]];portConstraint=eastwest;rounded=0;shadow=0;html=0;" parent="0Rm-izsB5Mol1mDSeOwW-1" vertex="1">
          <mxGeometry y="52" width="160" height="26" as="geometry" />
        </mxCell>
        <mxCell id="0Rm-izsB5Mol1mDSeOwW-4" value="int YearOfCreating;" style="text;align=left;verticalAlign=top;spacingLeft=4;spacingRight=4;overflow=hidden;rotatable=0;points=[[0,0.5],[1,0.5]];portConstraint=eastwest;rounded=0;shadow=0;html=0;" parent="0Rm-izsB5Mol1mDSeOwW-1" vertex="1">
          <mxGeometry y="78" width="160" height="26" as="geometry" />
        </mxCell>
        <mxCell id="0Rm-izsB5Mol1mDSeOwW-7" value="Music Albums&#xa;" style="swimlane;fontStyle=0;align=center;verticalAlign=top;childLayout=stackLayout;horizontal=1;startSize=26;horizontalStack=0;resizeParent=1;resizeLast=0;collapsible=1;marginBottom=0;rounded=0;shadow=0;strokeWidth=1;" parent="1" vertex="1">
          <mxGeometry x="120" y="360" width="200" height="190" as="geometry">
            <mxRectangle x="130" y="380" width="160" height="26" as="alternateBounds" />
          </mxGeometry>
        </mxCell>
        <mxCell id="0Rm-izsB5Mol1mDSeOwW-8" value="int TrackAmount" style="text;align=left;verticalAlign=top;spacingLeft=4;spacingRight=4;overflow=hidden;rotatable=0;points=[[0,0.5],[1,0.5]];portConstraint=eastwest;" parent="0Rm-izsB5Mol1mDSeOwW-7" vertex="1">
          <mxGeometry y="26" width="200" height="24" as="geometry" />
        </mxCell>
        <mxCell id="0Rm-izsB5Mol1mDSeOwW-9" value="String urlToCover" style="text;align=left;verticalAlign=top;spacingLeft=4;spacingRight=4;overflow=hidden;rotatable=0;points=[[0,0.5],[1,0.5]];portConstraint=eastwest;rounded=0;shadow=0;html=0;" parent="0Rm-izsB5Mol1mDSeOwW-7" vertex="1">
          <mxGeometry y="50" width="200" height="24" as="geometry" />
        </mxCell>
        <mxCell id="0Rm-izsB5Mol1mDSeOwW-28" value="String NameOfLabel" style="text;align=left;verticalAlign=top;spacingLeft=4;spacingRight=4;overflow=hidden;rotatable=0;points=[[0,0.5],[1,0.5]];portConstraint=eastwest;rounded=0;shadow=0;html=0;" parent="0Rm-izsB5Mol1mDSeOwW-7" vertex="1">
          <mxGeometry y="74" width="200" height="24" as="geometry" />
        </mxCell>
        <mxCell id="0Rm-izsB5Mol1mDSeOwW-29" value="ArrayList&lt;Song&gt; songsInAlbum&#xa;" style="text;align=left;verticalAlign=top;spacingLeft=4;spacingRight=4;overflow=hidden;rotatable=0;points=[[0,0.5],[1,0.5]];portConstraint=eastwest;rounded=0;shadow=0;html=0;" parent="0Rm-izsB5Mol1mDSeOwW-7" vertex="1">
          <mxGeometry y="98" width="200" height="24" as="geometry" />
        </mxCell>
        <mxCell id="0Rm-izsB5Mol1mDSeOwW-10" value="" style="line;html=1;strokeWidth=1;align=left;verticalAlign=middle;spacingTop=-1;spacingLeft=3;spacingRight=3;rotatable=0;labelPosition=right;points=[];portConstraint=eastwest;" parent="0Rm-izsB5Mol1mDSeOwW-7" vertex="1">
          <mxGeometry y="122" width="200" height="12" as="geometry" />
        </mxCell>
        <mxCell id="-oXcqrdlyGIORkHBBwXP-1" value="String returnInfo ()" style="text;align=left;verticalAlign=top;spacingLeft=4;spacingRight=4;overflow=hidden;rotatable=0;points=[[0,0.5],[1,0.5]];portConstraint=eastwest;rounded=0;shadow=0;html=0;" vertex="1" parent="0Rm-izsB5Mol1mDSeOwW-7">
          <mxGeometry y="134" width="200" height="24" as="geometry" />
        </mxCell>
        <mxCell id="-oXcqrdlyGIORkHBBwXP-2" value="double calculateDurationOfAlbum()" style="text;align=left;verticalAlign=top;spacingLeft=4;spacingRight=4;overflow=hidden;rotatable=0;points=[[0,0.5],[1,0.5]];portConstraint=eastwest;rounded=0;shadow=0;html=0;" vertex="1" parent="0Rm-izsB5Mol1mDSeOwW-7">
          <mxGeometry y="158" width="200" height="24" as="geometry" />
        </mxCell>
        <mxCell id="0Rm-izsB5Mol1mDSeOwW-12" value="" style="endArrow=block;endSize=10;endFill=0;shadow=0;strokeWidth=1;rounded=0;edgeStyle=elbowEdgeStyle;elbow=vertical;" parent="1" source="0Rm-izsB5Mol1mDSeOwW-7" target="0Rm-izsB5Mol1mDSeOwW-1" edge="1">
          <mxGeometry width="160" relative="1" as="geometry">
            <mxPoint x="200" y="203" as="sourcePoint" />
            <mxPoint x="200" y="203" as="targetPoint" />
          </mxGeometry>
        </mxCell>
        <mxCell id="0Rm-izsB5Mol1mDSeOwW-13" value="Podcasts&#xa;" style="swimlane;fontStyle=0;align=center;verticalAlign=top;childLayout=stackLayout;horizontal=1;startSize=26;horizontalStack=0;resizeParent=1;resizeLast=0;collapsible=1;marginBottom=0;rounded=0;shadow=0;strokeWidth=1;" parent="1" vertex="1">
          <mxGeometry x="440" y="360" width="230" height="120" as="geometry">
            <mxRectangle x="340" y="380" width="170" height="26" as="alternateBounds" />
          </mxGeometry>
        </mxCell>
        <mxCell id="0Rm-izsB5Mol1mDSeOwW-14" value="double duration&#xa;" style="text;align=left;verticalAlign=top;spacingLeft=4;spacingRight=4;overflow=hidden;rotatable=0;points=[[0,0.5],[1,0.5]];portConstraint=eastwest;" parent="0Rm-izsB5Mol1mDSeOwW-13" vertex="1">
          <mxGeometry y="26" width="230" height="24" as="geometry" />
        </mxCell>
        <mxCell id="-oXcqrdlyGIORkHBBwXP-5" value="char Type (i - Interwiev, b - books)" style="text;align=left;verticalAlign=top;spacingLeft=4;spacingRight=4;overflow=hidden;rotatable=0;points=[[0,0.5],[1,0.5]];portConstraint=eastwest;" vertex="1" parent="0Rm-izsB5Mol1mDSeOwW-13">
          <mxGeometry y="50" width="230" height="24" as="geometry" />
        </mxCell>
        <mxCell id="-oXcqrdlyGIORkHBBwXP-7" value="" style="line;html=1;strokeWidth=1;align=left;verticalAlign=middle;spacingTop=-1;spacingLeft=3;spacingRight=3;rotatable=0;labelPosition=right;points=[];portConstraint=eastwest;" vertex="1" parent="0Rm-izsB5Mol1mDSeOwW-13">
          <mxGeometry y="74" width="230" height="12" as="geometry" />
        </mxCell>
        <mxCell id="-oXcqrdlyGIORkHBBwXP-6" value="String returnInfo ()" style="text;align=left;verticalAlign=top;spacingLeft=4;spacingRight=4;overflow=hidden;rotatable=0;points=[[0,0.5],[1,0.5]];portConstraint=eastwest;rounded=0;shadow=0;html=0;" vertex="1" parent="0Rm-izsB5Mol1mDSeOwW-13">
          <mxGeometry y="86" width="230" height="24" as="geometry" />
        </mxCell>
        <mxCell id="0Rm-izsB5Mol1mDSeOwW-16" value="" style="endArrow=block;endSize=10;endFill=0;shadow=0;strokeWidth=1;rounded=0;edgeStyle=elbowEdgeStyle;elbow=vertical;" parent="1" source="0Rm-izsB5Mol1mDSeOwW-13" target="0Rm-izsB5Mol1mDSeOwW-1" edge="1">
          <mxGeometry width="160" relative="1" as="geometry">
            <mxPoint x="210" y="373" as="sourcePoint" />
            <mxPoint x="310" y="271" as="targetPoint" />
          </mxGeometry>
        </mxCell>
        <mxCell id="0Rm-izsB5Mol1mDSeOwW-17" value="Song" style="swimlane;fontStyle=0;align=center;verticalAlign=top;childLayout=stackLayout;horizontal=1;startSize=26;horizontalStack=0;resizeParent=1;resizeLast=0;collapsible=1;marginBottom=0;rounded=0;shadow=0;strokeWidth=1;" parent="1" vertex="1">
          <mxGeometry x="140" y="620" width="160" height="110" as="geometry">
            <mxRectangle x="550" y="140" width="160" height="26" as="alternateBounds" />
          </mxGeometry>
        </mxCell>
        <mxCell id="0Rm-izsB5Mol1mDSeOwW-18" value="String urlToText;" style="text;align=left;verticalAlign=top;spacingLeft=4;spacingRight=4;overflow=hidden;rotatable=0;points=[[0,0.5],[1,0.5]];portConstraint=eastwest;" parent="0Rm-izsB5Mol1mDSeOwW-17" vertex="1">
          <mxGeometry y="26" width="160" height="24" as="geometry" />
        </mxCell>
        <mxCell id="0Rm-izsB5Mol1mDSeOwW-19" value="boolean IfExplicitContent;" style="text;align=left;verticalAlign=top;spacingLeft=4;spacingRight=4;overflow=hidden;rotatable=0;points=[[0,0.5],[1,0.5]];portConstraint=eastwest;rounded=0;shadow=0;html=0;" parent="0Rm-izsB5Mol1mDSeOwW-17" vertex="1">
          <mxGeometry y="50" width="160" height="24" as="geometry" />
        </mxCell>
        <mxCell id="0Rm-izsB5Mol1mDSeOwW-21" value="" style="line;html=1;strokeWidth=1;align=left;verticalAlign=middle;spacingTop=-1;spacingLeft=3;spacingRight=3;rotatable=0;labelPosition=right;points=[];portConstraint=eastwest;" parent="0Rm-izsB5Mol1mDSeOwW-17" vertex="1">
          <mxGeometry y="74" width="160" height="8" as="geometry" />
        </mxCell>
        <mxCell id="0Rm-izsB5Mol1mDSeOwW-22" value="String returnInfo()" style="text;align=left;verticalAlign=top;spacingLeft=4;spacingRight=4;overflow=hidden;rotatable=0;points=[[0,0.5],[1,0.5]];portConstraint=eastwest;" parent="0Rm-izsB5Mol1mDSeOwW-17" vertex="1">
          <mxGeometry y="82" width="160" height="24" as="geometry" />
        </mxCell>
        <mxCell id="-oXcqrdlyGIORkHBBwXP-3" value="" style="endArrow=classic;html=1;rounded=0;entryX=0.5;entryY=1;entryDx=0;entryDy=0;exitX=0.5;exitY=0;exitDx=0;exitDy=0;" edge="1" parent="1" source="0Rm-izsB5Mol1mDSeOwW-17" target="0Rm-izsB5Mol1mDSeOwW-7">
          <mxGeometry width="50" height="50" relative="1" as="geometry">
            <mxPoint x="220" y="620" as="sourcePoint" />
            <mxPoint x="240" y="580" as="targetPoint" />
          </mxGeometry>
        </mxCell>
      </root>
    </mxGraphModel>
  </diagram>
</mxfile>
